<svg height='50px' width='50px'  fill="#d8dae3" xmlns="http://www.w3.org/2000/svg" data-name="Layer 1" viewBox="0 0 24 24" x="0px" y="0px"><title>food, cook, dinner, reastaurant, lunch, eat_1</title><path d="M3.23,23.41,13.29,12.62a1.59,1.59,0,0,1,1.54-.42,6.33,6.33,0,0,0,5.94-1.94c2.64-2.64,3.59-5.21,3.11-5.68s-4.63,4.16-5.51,3.28,3.84-4.95,3.28-5.51S17,6.51,16.14,5.63,20,.68,19.42.12s-3,.47-5.68,3.11A6.33,6.33,0,0,0,11.8,9.17a1.59,1.59,0,0,1-.42,1.54L.59,20.77l-.09.09a1.87,1.87,0,0,0,2.73,2.55Z"></path><path d="M16.43,14.33l-.34,0a6.94,6.94,0,0,1-1.52-.16l-1.28,1.37,7.35,7.82a1.94,1.94,0,1,0,2.72-2.75Z"></path><path d="M9.81,9.43a7.49,7.49,0,0,1-.15-1.25L.83.13A.48.48,0,0,0,0,.45c-.3,4,3.76,9.08,6.51,12Z"></path></svg>